<?xml version="1.0" encoding="iso-8859-1"?>
<!-- Generator: Adobe Illustrator 19.0.0, SVG Export Plug-In . SVG Version: 6.00 Build 0)  -->
<svg version="1.1" id="Capa_1" xmlns="http://www.w3.org/2000/svg" xmlns:xlink="http://www.w3.org/1999/xlink" x="0px" y="0px"
	 viewBox="0 0 377.012 377.012" style="enable-background:new 0 0 377.012 377.012;" xml:space="preserve">
<g>
	<g>
		<path d="M232.157,231.611l-22.56-74.16l-4.24-13.84c-0.053-0.532-0.053-1.068,0-1.6l-51.76,15.36
			c-8.475,2.503-13.316,11.402-10.813,19.877c0.004,0.014,0.009,0.029,0.013,0.043l22,74.32c2.02,6.795,8.271,11.45,15.36,11.44
			c1.543,0.008,3.079-0.208,4.56-0.64l52.08-15.52L232.157,231.611z"/>
	</g>
</g>
<g>
	<g>
		<path d="M314.33,207.174c-0.004-0.014-0.009-0.029-0.013-0.043l-22.08-74.24c-2.503-8.475-11.402-13.316-19.877-10.813
			c-0.014,0.004-0.029,0.009-0.043,0.013l-52.24,15.52c0.283,0.429,0.524,0.885,0.72,1.36l4.24,13.92l22.56,74.16l4.64,15.28
			l51.28-15.28C311.992,224.548,316.833,215.649,314.33,207.174z"/>
	</g>
</g>
<g>
	<g>
		<path d="M255.886,92.927c-0.041-0.146-0.084-0.291-0.129-0.436l-16-53.04c-2.503-8.475-11.402-13.316-19.877-10.813
			c-0.014,0.004-0.029,0.009-0.043,0.013l-40.8,12.16l4.56,15.36l15.92,53.36l4.56,14.96l40.72-11.84
			C253.306,110.266,258.27,101.435,255.886,92.927z"/>
	</g>
</g>
<g>
	<g>
		<path d="M184.237,114.011l-16-53.12l-4.56-15.36l-40,12c-8.475,2.503-13.316,11.402-10.813,19.877
			c0.004,0.014,0.009,0.029,0.013,0.043l15.68,53.12c2.453,8.489,11.323,13.383,19.813,10.93c0.143-0.041,0.286-0.085,0.427-0.13
			l40-12L184.237,114.011z"/>
	</g>
</g>
<g>
	<g>
		<path d="M348.397,233.691c-1.339-4.145-5.749-6.457-9.92-5.2l-175.52,52.08l-73.76-248c-0.686-1.739-1.96-3.182-3.6-4.08
			l-44.64-26.96c-3.573-2.599-8.577-1.809-11.175,1.765c-2.599,3.573-1.809,8.577,1.765,11.175c0.441,0.321,0.914,0.596,1.411,0.82
			l42,25.04l73.84,248.88c-23.036,10.816-32.942,38.26-22.126,61.296c10.816,23.036,38.26,32.942,61.296,22.126
			c23.036-10.816,32.942-38.26,22.126-61.296c-4.434-9.444-11.942-17.104-21.296-21.726l154.4-45.92
			C347.383,242.351,349.705,237.886,348.397,233.691z M196.797,322.171c4.506,15.852-4.692,32.356-20.544,36.862
			c-15.852,4.506-32.356-4.692-36.862-20.544c-4.506-15.852,4.692-32.356,20.544-36.862c2.726-0.775,5.548-1.157,8.382-1.136
			C181.563,300.616,193.149,309.436,196.797,322.171z"/>
	</g>
</g>
<g>
</g>
<g>
</g>
<g>
</g>
<g>
</g>
<g>
</g>
<g>
</g>
<g>
</g>
<g>
</g>
<g>
</g>
<g>
</g>
<g>
</g>
<g>
</g>
<g>
</g>
<g>
</g>
<g>
</g>
</svg>
