<svg id="Layer_1" enable-background="new 0 0 64 64" height="512" viewBox="0 0 64 64" width="512" xmlns="http://www.w3.org/2000/svg"><path d="m25.4 34.4c-.1-.1-.2-.2-.4-.3v4.3l6 3v-4.6c-1.8-.2-3.4-.8-4.9-1.9z"/><path d="m33 36.8v4.6l6-3v-4.3c-.1.1-.2.2-.4.3l-.7.6c-1.5 1-3.1 1.6-4.9 1.8z"/><path d="m22 13h20v2h-20z"/><path d="m32 21c3.4 0 6.7-1.5 9-4h-18c2.3 2.5 5.6 4 9 4z"/><path d="m21.8 11h20.5l1.2-4.1c.2-.5-.2-1.1-.7-1.2h-.1l-10.7-1.7-10.6 1.6c-.5.1-.9.6-.8 1.1v.1z"/><path d="m23 39.6v-2.2l-9.6 3.2c-2 .7-3.4 2.6-3.4 4.7v14.7h8v-9h2v9h8v-15.5l2-1.3z"/><path d="m50.6 40.6-9.6-3.2v2.2l-8.5 4.2-2.5 1.7v14.5h14v-9h2v9h8v-14.7c0-2.1-1.4-4-3.4-4.7zm-16.6 17.4h-2v-2h2zm0-4h-2v-2h2zm0-4h-2v-2h2zm10-1h-8v-2h8z"/><path d="m20.4 22.8 1.6 1.1c0 3.5 1.7 6.8 4.5 8.9l.8.6c2.8 2 6.6 2 9.4 0l.8-.6c2.8-2.1 4.5-5.4 4.5-8.9l1.6-1.1c.3-.2.4-.5.4-.8v-1c0-.6-.5-1-1.1-1h-.9v-1.2c-5.4 5.5-14.3 5.6-19.8.2-.1-.1-.1-.1-.2-.2v1.2h-.9c-.6 0-1 .4-1.1 1v1c0 .3.2.6.4.8z"/></svg>